<svg width="31" height="20" viewBox="0 0 31 20" fill="none" xmlns="http://www.w3.org/2000/svg">
<path d="M0 -8.12305H3.63281V0.958984H0V-8.12305Z" fill="white"/>
<path d="M27.3672 10.041H31V19.123H27.3672V10.041Z" fill="white"/>
<path d="M13.6836 0.958984H17.3164V10.041H13.6836V0.958984Z" fill="white"/>
<path d="M2.72461 8.22461H11.8672V2.77539H2.72461C1.2222 2.77539 0 3.99759 0 5.5C0 7.00241 1.2222 8.22461 2.72461 8.22461Z" fill="white"/>
<path d="M28.2754 2.77539H19.1328V8.22461H28.2754C29.7778 8.22461 31 7.00241 31 5.5C31 3.99759 29.7778 2.77539 28.2754 2.77539Z" fill="white"/>
<path d="M2.72461 17.3066H25.5508V11.8574H2.72461C1.2222 11.8574 0 13.0796 0 14.582C0 16.0844 1.2222 17.3066 2.72461 17.3066Z" fill="white"/>
</svg>
