<svg width="33" height="33" viewBox="0 0 33 33" fill="none" xmlns="http://www.w3.org/2000/svg">
<g clip-path="url(#clip0_1_824)">
<path d="M18.2069 27.5164V25.2478H-5.72205e-06V27.5256C-5.72205e-06 29.5884 1.66689 31.2931 3.72994 31.2931H20.0419C19.8854 31.1508 19.7346 31.0261 19.5921 30.8833C18.7011 29.9896 18.2027 28.7783 18.2069 27.5164V27.5164Z" fill="white"/>
<path d="M12.891 13.7634L15.5331 15.5773L18.1854 13.7634C18.9107 13.2687 19.4869 12.1521 19.4869 11.2742V7.52594L15.5397 5.57373L11.5925 7.52094V11.2742C11.5925 12.1518 12.1654 13.2687 12.891 13.7634ZM13.4858 10.2207C13.6811 10.0274 13.9965 10.0288 14.1898 10.2244L14.9833 11.0256L16.893 9.11615C17.0874 8.92168 17.4028 8.92168 17.5972 9.11643C17.7917 9.3109 17.7914 9.62622 17.5969 9.82069L15.3336 12.0852C15.2402 12.1788 15.1138 12.2321 14.9816 12.2327H14.9805C14.8477 12.2318 14.7207 12.1782 14.6279 12.0832L13.4822 10.9258C13.2889 10.73 13.2905 10.4147 13.4858 10.2207Z" fill="white"/>
<path d="M30.3612 1.70679H30.3453C28.8826 1.70679 27.6661 2.92889 27.6661 4.39242V8.96109H33.0001V4.38353C33.0068 2.91723 31.8275 1.72096 30.3612 1.70679V1.70679Z" fill="white"/>
<path d="M7.64317 1.70679C6.25992 1.70679 5.13422 2.81749 5.13422 4.1799L4.98725 24.252H18.7047C18.9839 24.2632 19.2042 24.4935 19.2025 24.7732V27.5164C19.1975 29.5903 20.8694 31.278 22.943 31.293H22.9555C25.0216 31.278 26.6843 29.5911 26.6702 27.525V4.39326C26.6702 3.34673 27.1411 2.41799 27.8487 1.70679L7.64317 1.70679ZM10.5969 7.21031C10.5905 7.02306 10.693 6.84887 10.86 6.7633L15.3184 4.57217C15.4553 4.50439 15.6159 4.50439 15.7529 4.57217L20.2193 6.76941C20.3863 6.85498 20.4888 7.02889 20.4827 7.21642V11.2742C20.4827 12.4818 19.7456 13.9057 18.7474 14.586L15.8226 16.5916C15.7406 16.648 15.6434 16.6782 15.544 16.6782C15.4448 16.6782 15.3481 16.6482 15.2667 16.5916L12.3332 14.586C11.3356 13.9054 10.5969 12.4816 10.5969 11.2742V7.21031ZM22.6163 21.9762H8.96112C8.68608 21.9762 8.46328 21.7534 8.46328 21.4783C8.46328 21.2033 8.68608 20.9805 8.96112 20.9805H22.6163C22.8913 20.9805 23.1141 21.2033 23.1141 21.4783C23.1141 21.7534 22.8913 21.9762 22.6163 21.9762ZM22.6163 19.3447H8.96112C8.68608 19.3447 8.46328 19.1219 8.46328 18.8469C8.46328 18.5718 8.68608 18.349 8.96112 18.349H22.6163C22.8913 18.349 23.1141 18.5718 23.1141 18.8469C23.1141 19.1219 22.8913 19.3447 22.6163 19.3447Z" fill="white"/>
</g>
<defs>
<clipPath id="clip0_1_824">
<rect width="33" height="33" fill="white"/>
</clipPath>
</defs>
</svg>
